<svg xmlns="http://www.w3.org/2000/svg" width="91.938" height="91.943" viewBox="0 0 91.938 91.943">
  <path id="Icon_ionic-ios-person" data-name="Icon ionic-ios-person" d="M96.394,94.121C94.67,86.507,84.829,82.8,81.429,81.6c-3.735-1.317-9.051-1.628-12.475-2.394-1.963-.431-4.813-1.508-5.77-2.658s-.383-11.8-.383-11.8a35.515,35.515,0,0,0,2.73-5.2c.958-2.418,2.011-9.075,2.011-9.075s1.963,0,2.658-3.448c.742-3.759,1.915-5.22,1.772-8.021-.144-2.754-1.652-2.682-1.652-2.682s1.461-4,1.628-12.283C72.163,14.2,64.453,4.5,50.494,4.5,36.343,4.5,28.8,14.2,29.017,24.038c.192,8.284,1.6,12.283,1.6,12.283S29.112,36.249,28.969,39c-.144,2.8,1.03,4.262,1.772,8.021.67,3.448,2.658,3.448,2.658,3.448s1.054,6.656,2.011,9.075a35.515,35.515,0,0,0,2.73,5.2s.575,10.655-.383,11.8-3.807,2.227-5.77,2.658c-3.424.766-8.739,1.077-12.475,2.394-3.4,1.2-13.241,4.908-14.965,12.523a1.914,1.914,0,0,0,1.892,2.323H94.526A1.91,1.91,0,0,0,96.394,94.121Z" transform="translate(-4.501 -4.5)" fill="#121212"/>
</svg>
